<svg width="114" height="143" viewBox="0 0 114 143" fill="none" xmlns="http://www.w3.org/2000/svg">
<circle cx="56.3677" cy="29.1296" r="28.6296" fill="#F9F9F9" stroke="#EDEDED"/>
<circle cx="56.7461" cy="29.5079" r="25.2249" fill="white" stroke="#EDEDED"/>
<rect x="0.5" y="30.0079" width="112.492" height="112.492" rx="9.5" fill="#F9F9F9" stroke="#EDEDED"/>
<g clip-path="url(#clip0_1_4122)">
<path d="M68.6375 57.1727C68.7713 57.1727 68.9051 57.1727 69.0465 57.1727C69.3748 61.2279 67.8269 64.2579 65.9458 66.4522C64.1 68.6313 61.5724 70.7448 57.4844 70.4241C57.2117 66.4269 58.762 63.6216 60.6407 61.4324C62.3829 59.3922 65.5771 57.5767 68.6375 57.1727Z" fill="black"/>
<path d="M81.0126 99.3812C81.0126 99.4216 81.0126 99.4569 81.0126 99.4948C79.8637 102.974 78.225 105.956 76.2252 108.724C74.3996 111.236 72.1624 114.617 68.1678 114.617C64.716 114.617 62.4233 112.398 58.8857 112.337C55.1436 112.277 53.0857 114.193 49.6643 114.675C49.2729 114.675 48.8815 114.675 48.4977 114.675C45.9853 114.312 43.9577 112.322 42.4806 110.529C38.1249 105.232 34.759 98.3888 34.1328 89.632C34.1328 88.7735 34.1328 87.9175 34.1328 87.059C34.3979 80.7919 37.4431 75.6964 41.4908 73.2269C43.6269 71.9138 46.5636 70.7953 49.8335 71.2952C51.2349 71.5124 52.6666 71.9921 53.9215 72.4668C55.1108 72.9239 56.5981 73.7344 58.007 73.6915C58.9615 73.6637 59.9109 73.1663 60.8729 72.8153C63.6909 71.7977 66.4533 70.6311 70.0944 71.1791C74.4703 71.8406 77.5761 73.7849 79.4951 76.7846C75.7934 79.1405 72.8669 82.6907 73.3668 88.7533C73.8112 94.2604 77.013 97.4824 81.0126 99.3812Z" fill="black"/>
</g>
<defs>
<clipPath id="clip0_1_4122">
<rect width="57.5026" height="57.5026" fill="white" transform="translate(28.1597 57.1727)"/>
</clipPath>
</defs>
</svg>
